<svg
  width="52"
  height="52"
  fill="none"
  viewBox="0 0 52 52"
  xmlns="http://www.w3.org/2000/svg"
>
  <circle cx="26" cy="26" r="26" />
  <path
    class="vision"
    d="M26.3086 18.8672L20.1562 36H18.1523L12 18.8672H14.0859L18.0938 30.1523C18.2578 30.6055 18.4023 31.0391 18.5273 31.4531C18.6602 31.8672 18.7773 32.2656 18.8789 32.6484C18.9805 33.0312 19.0703 33.4023 19.1484 33.7617C19.2266 33.4023 19.3164 33.0312 19.418 32.6484C19.5195 32.2578 19.6367 31.8555 19.7695 31.4414C19.9023 31.0195 20.0508 30.5781 20.2148 30.1172L24.1992 18.8672H26.3086Z"
  />
  <path
    class="salcedense"
    d="M39.0117 31.4414C39.0117 32.457 38.7578 33.3242 38.25 34.043C37.75 34.7539 37.0469 35.2969 36.1406 35.6719C35.2344 36.0469 34.168 36.2344 32.9414 36.2344C32.293 36.2344 31.6797 36.2031 31.1016 36.1406C30.5234 36.0781 29.9922 35.9883 29.5078 35.8711C29.0234 35.7539 28.5977 35.6094 28.2305 35.4375V33.5273C28.8164 33.7695 29.5312 33.9961 30.375 34.207C31.2188 34.4102 32.1016 34.5117 33.0234 34.5117C33.8828 34.5117 34.6094 34.3984 35.2031 34.1719C35.7969 33.9375 36.2461 33.6055 36.5508 33.1758C36.8633 32.7383 37.0195 32.2148 37.0195 31.6055C37.0195 31.0195 36.8906 30.5312 36.6328 30.1406C36.375 29.7422 35.9453 29.3828 35.3438 29.0625C34.75 28.7344 33.9375 28.3867 32.9062 28.0195C32.1797 27.7617 31.5391 27.4805 30.9844 27.1758C30.4297 26.8633 29.9648 26.5117 29.5898 26.1211C29.2148 25.7305 28.9297 25.2773 28.7344 24.7617C28.5469 24.2461 28.4531 23.6562 28.4531 22.9922C28.4531 22.0781 28.6836 21.2969 29.1445 20.6484C29.6133 19.9922 30.2578 19.4922 31.0781 19.1484C31.9062 18.7969 32.8555 18.6211 33.9258 18.6211C34.8398 18.6211 35.6836 18.707 36.457 18.8789C37.2383 19.0508 37.9531 19.2812 38.6016 19.5703L37.9805 21.2812C37.3633 21.0234 36.707 20.8086 36.0117 20.6367C35.3242 20.4648 34.6133 20.3789 33.8789 20.3789C33.1445 20.3789 32.5234 20.4883 32.0156 20.707C31.5156 20.918 31.1328 21.2188 30.8672 21.6094C30.6016 22 30.4688 22.4648 30.4688 23.0039C30.4688 23.6055 30.5938 24.1055 30.8438 24.5039C31.1016 24.9023 31.5078 25.2578 32.0625 25.5703C32.625 25.875 33.3672 26.1953 34.2891 26.5312C35.2969 26.8984 36.1523 27.2891 36.8555 27.7031C37.5586 28.1094 38.0938 28.6094 38.4609 29.2031C38.8281 29.7891 39.0117 30.5352 39.0117 31.4414Z"
  />

  <style>
    circle {
      fill: #fff;
    }

    .vision {
      fill: #4f9e2d;
    }

    .salcedense {
      fill: #2a2b2c;
    }

    @media (prefers-color-scheme: dark) {
      circle {
        fill: #4f9e2d;
      }

      .vision {
        fill: #fff;
      }
    }
  </style>
</svg>
